<svg id="Group_852" data-name="Group 852" xmlns="http://www.w3.org/2000/svg" xmlns:xlink="http://www.w3.org/1999/xlink" width="16.915" height="18.101" viewBox="0 0 16.915 18.101">
  <defs>
    <clipPath id="clip-path">
      <rect id="Rectangle_556" data-name="Rectangle 556" width="16.915" height="18.101" fill="none"/>
    </clipPath>
  </defs>
  <g id="Group_851" data-name="Group 851" clip-path="url(#clip-path)">
    <path id="Path_5337" data-name="Path 5337" d="M33.154,15.169a1.433,1.433,0,0,1,1.361-.363.751.751,0,0,1,.257.129,13.5,13.5,0,0,0,3.19,1.809.419.419,0,0,0,.281.017,11.957,11.957,0,0,0,4.108-2.567,7.013,7.013,0,0,0,2.005-3.886,14.335,14.335,0,0,0,.155-1.926c.024-1.11.007-2.222.007-3.333V4.785a12.156,12.156,0,0,1-6.394-3.069,12.132,12.132,0,0,1-6.377,3.066c-.005.074-.014.135-.014.2,0,1.347,0,2.695.008,4.042a7.234,7.234,0,0,0,.378,2.179.223.223,0,0,1-.109.31c-.305.191-.6.4-.959.639a12.978,12.978,0,0,1-.392-1.417,14.984,14.984,0,0,1-.212-2.084c-.03-1.591-.01-3.183-.01-4.774V3.635c3.214,0,5.575-1.565,7.684-3.635,2.1,2.057,4.462,3.63,7.675,3.634,0,.075.01.144.01.213,0,1.718.028,3.436-.007,5.153a8.5,8.5,0,0,1-2.974,6.485,14.633,14.633,0,0,1-4.568,2.593.411.411,0,0,1-.264,0,14.232,14.232,0,0,1-4.746-2.807c-.035-.032-.063-.07-.093-.1" transform="translate(-28.902)"/>
    <path id="Path_5338" data-name="Path 5338" d="M73.034,106.707a2.717,2.717,0,0,1,3.109-.968,2.167,2.167,0,0,1,1.447,2.043c-.3,0-.6,0-.894,0-.282,0-.333.05-.335.319,0,.18,0,.36,0,.57-.234,0-.448.005-.663,0-.192-.006-.281.082-.283.252q-.005.52,0,1.04c0,.158.079.247.265.239.215-.008.432,0,.678,0,0,.3,0,.568,0,.841a.224.224,0,0,1-.077.14c-.539.479-1.081.955-1.667,1.47-.193-.56-.63-.673-1.091-.756-.893-.162-1.784-.33-2.677-.491a1.358,1.358,0,0,0-.422-.039.646.646,0,0,1-.669-.307q-.431-.594-.886-1.172a.385.385,0,0,0-.253-.129c-.368-.014-.737-.007-1.1-.006-.165,0-.322-.03-.315-.218.007-.173.159-.192.314-.192.712,0,1.424-.009,2.135.007a.385.385,0,0,0,.447-.306c.09-.292.217-.574.355-.928l.384,1.573c.082.337.161.674.251,1.009.016.059.078.106.119.159.052-.05.132-.092.153-.152.155-.447.3-.9.452-1.364H73.36c.075,0,.171.022.221-.013a.422.422,0,0,0,.193-.233c.007-.054-.134-.176-.211-.178q-.966-.022-1.933,0c-.077,0-.176.1-.222.183a2.562,2.562,0,0,0-.152.423l-.576-2.355a.282.282,0,0,0-.022-.091c-.045-.067-.1-.129-.149-.193a.737.737,0,0,0-.143.172c-.219.552-.435,1.1-.639,1.662-.053.146-.115.22-.293.2a2.407,2.407,0,0,0-.551,0c-.266.035-.363-.06-.4-.3a2.562,2.562,0,0,1,.78-2.471,2.625,2.625,0,0,1,3.671.433l.1.133" transform="translate(-63.817 -100.594)"/>
    <path id="Path_5339" data-name="Path 5339" d="M45.614,235.937a8.993,8.993,0,0,1,2.64.337c.436.068.87.143,1.305.217.322.055.506.206.526.428a.534.534,0,0,1-.459.545,4.856,4.856,0,0,1-2.156-.012c-.155-.03-.306-.084-.463-.1-.064-.007-.137.052-.205.081.037.054.063.141.113.156a4.9,4.9,0,0,0,.937.236,9.3,9.3,0,0,0,1.568.022,1.909,1.909,0,0,0,.794-.317c.488-.3.951-.64,1.419-.972a1.237,1.237,0,0,1,.806-.27.517.517,0,0,1,.486.315.4.4,0,0,1-.116.5c-.751.638-1.482,1.3-2.275,1.889a3.61,3.61,0,0,1-2.59.5c-.938-.089-1.873-.213-2.806-.343a1.757,1.757,0,0,0-1.2.314c-.475.286-.384.287-.708-.127-.442-.564-.879-1.13-1.33-1.687-.128-.159-.117-.246.068-.351a7.264,7.264,0,0,0,.851-.541,3.671,3.671,0,0,1,2.791-.81" transform="translate(-39.718 -224.76)"/>
    <path id="Path_5340" data-name="Path 5340" d="M3.7,270.53a.887.887,0,0,1-.117.118c-.4.275-.8.544-1.2.821-.128.09-.2.054-.287-.054q-1.018-1.331-2.044-2.658c-.095-.122-.065-.187.053-.266.39-.258.777-.519,1.158-.789.129-.091.211-.09.307.036q1.009,1.323,2.024,2.642c.034.044.062.092.1.15" transform="translate(0 -254.994)"/>
    <path id="Path_5341" data-name="Path 5341" d="M240.422,159.346v.881h.928v.845h-.92v.882h-.9v-.869H238.6v-.844h.922c0-.244.008-.469,0-.692-.007-.152.044-.214.213-.205.215.011.432,0,.69,0" transform="translate(-226.614 -151.815)"/>
  </g>
</svg>
