<svg id="Group_830" data-name="Group 830" xmlns="http://www.w3.org/2000/svg" xmlns:xlink="http://www.w3.org/1999/xlink" width="19.378" height="16.909" viewBox="0 0 19.378 16.909">
  <defs>
    <clipPath id="clip-path">
      <rect id="Rectangle_540" data-name="Rectangle 540" width="19.378" height="16.91" fill="none"/>
    </clipPath>
  </defs>
  <g id="Group_830-2" data-name="Group 830" clip-path="url(#clip-path)">
    <path id="Path_5313" data-name="Path 5313" d="M4.218,1.3h.668C5.155.353,5.534,0,6.269,0S7.4.358,7.652,1.3h.654C8.569.356,8.952,0,9.689,0s1.121.354,1.383,1.3c.1.005.215.016.327.016s.223-.011.327-.016C11.983.36,12.371,0,13.109,0s1.114.351,1.383,1.3h.675c.021-.126.036-.234.057-.341A1.273,1.273,0,0,1,16.53,0a1.235,1.235,0,0,1,1.292.964c.034.262.128.353.433.417a1.294,1.294,0,0,1,1.094,1.066,1.984,1.984,0,0,1,.027.363q0,6.3,0,12.6A1.789,1.789,0,0,1,19.29,16a1.5,1.5,0,0,1-1.548.909q-8.052.005-16.1,0C.613,16.9.005,16.371,0,15.476Q0,9.11,0,2.744c0-.782.406-1.216,1.3-1.4.27-.054.207-.215.231-.352a1.25,1.25,0,0,1,1.2-.99A1.324,1.324,0,0,1,4.113.8a3.888,3.888,0,0,1,.106.5M2.3,14.885H17.063V5H2.3ZM.787,4.273H18.609c0-.573.016-1.115-.006-1.655-.015-.376-.264-.567-.693-.592-.282.95-.668,1.3-1.416,1.282-.726-.016-1.109-.382-1.346-1.3h-.655c-.28.956-.647,1.3-1.382,1.3s-1.134-.364-1.384-1.3h-.655c-.269.95-.645,1.3-1.383,1.3s-1.123-.359-1.383-1.3H7.652c-.258.944-.643,1.3-1.383,1.3s-1.112-.352-1.383-1.3H4.231c-.248.938-.64,1.3-1.384,1.3S1.742,2.96,1.47,2.026c-.387.021-.655.181-.673.492C.763,3.1.787,3.682.787,4.273m17.072.716v.466q0,4.74,0,9.481c0,.6-.051.647-.727.647H2.245c-.674,0-.724-.046-.724-.649q0-4.757,0-9.514V5H.782c-.007.134-.017.242-.017.35q0,5.022,0,10.044c0,.632.254.849.988.85H17.627c.733,0,.986-.219.987-.851q0-5.022,0-10.044c0-.117-.014-.233-.022-.358ZM3.406,1.654a4.5,4.5,0,0,0,0-.559A.484.484,0,0,0,2.871.671c-.32-.007-.545.141-.567.423a7.767,7.767,0,0,0,0,1.119c.018.266.227.417.529.423A.493.493,0,0,0,3.4,2.213a4.147,4.147,0,0,0,0-.559m3.415.014a4.165,4.165,0,0,0-.005-.592A.485.485,0,0,0,6.268.671c-.3,0-.522.143-.542.409a7.5,7.5,0,0,0,0,1.151c.021.266.244.406.546.405a.486.486,0,0,0,.544-.41,3.79,3.79,0,0,0,0-.559m3.426,0h0c0-.176.014-.353,0-.527A.511.511,0,0,0,9.683.669c-.321.013-.529.166-.546.447a8.265,8.265,0,0,0,0,1.086c.02.282.236.437.557.434a.49.49,0,0,0,.548-.445,4.793,4.793,0,0,0,0-.527m3.415-.011a4.486,4.486,0,0,0,0-.559.484.484,0,0,0-.532-.423c-.32-.007-.545.141-.567.423a7.778,7.778,0,0,0,0,1.119c.018.266.227.417.53.423a.493.493,0,0,0,.569-.424,4.135,4.135,0,0,0,0-.559m2.309,0h0a4.262,4.262,0,0,0,0,.559.485.485,0,0,0,.536.419c.32,0,.542-.145.563-.427a7.766,7.766,0,0,0,0-1.119c-.019-.266-.231-.415-.533-.419a.493.493,0,0,0-.565.427,4.345,4.345,0,0,0,0,.559" transform="translate(0 0)"/>
    <path id="Path_5314" data-name="Path 5314" d="M79.794,88.862c-1.212-1.144-1.278-2.406-.2-3.3a2.721,2.721,0,0,1,3.426.02c1.053.9.978,2.17-.218,3.274.1.049.185.1.276.142a3.26,3.26,0,0,1,2.014,2.916c.014.419,0,.839,0,1.259,0,.276-.151.412-.46.412q-3.34,0-6.68,0c-.261,0-.457-.093-.456-.343a12.434,12.434,0,0,1,.048-1.785,3.358,3.358,0,0,1,2.247-2.589m-1.568,4.024h6.1c0-.359.006-.69,0-1.02A2.822,2.822,0,0,0,81.6,89.29a2.952,2.952,0,0,0-3.267,2.119,10.893,10.893,0,0,0-.1,1.478M83,87.111a1.717,1.717,0,1,0-1.708,1.49A1.6,1.6,0,0,0,83,87.111" transform="translate(-71.604 -79.326)"/>
  </g>
</svg>
