<svg xmlns="http://www.w3.org/2000/svg" xmlns:xlink="http://www.w3.org/1999/xlink" width="17.431" height="12.257" viewBox="0 0 17.431 12.257">
  <defs>
    <clipPath id="clip-path">
      <rect id="Rectangle_547" data-name="Rectangle 547" width="17.431" height="12.257" fill="#142a49"/>
    </clipPath>
  </defs>
  <g id="Group_845" data-name="Group 845" transform="translate(0 -54)">
    <g id="Group_833" data-name="Group 833" transform="translate(0 54)" clip-path="url(#clip-path)">
      <path id="Path_5320" data-name="Path 5320" d="M8.706,12.257q-3.506,0-7.011,0A1.546,1.546,0,0,1,0,10.569Q0,6.128,0,1.686A1.544,1.544,0,0,1,1.7,0Q8.725,0,15.753,0A1.54,1.54,0,0,1,17.43,1.671q0,4.458,0,8.917a1.541,1.541,0,0,1-1.678,1.669q-3.523,0-7.045,0M1.8,1.034c.082.091.123.141.168.187Q5.089,4.354,8.212,7.486a.619.619,0,0,0,1.021-.014q3.112-3.119,6.22-6.242c.051-.051.094-.111.166-.2ZM1.794,11.218H15.572l-4.352-4.3c-.377.38-.79.8-1.206,1.217a1.636,1.636,0,0,1-2.6-.006c-.42-.423-.836-.85-1.23-1.251L1.794,11.218m-.742-9.4v8.533l4.3-4.267-4.3-4.266m15.327,8.611V1.9l-4.3,4.266,4.3,4.265" transform="translate(0 0)" fill="#142a49"/>
    </g>
  </g>
</svg>
