<svg id="Group_848" data-name="Group 848" xmlns="http://www.w3.org/2000/svg" xmlns:xlink="http://www.w3.org/1999/xlink" width="17.788" height="17.709" viewBox="0 0 17.788 17.709">
  <defs>
    <clipPath id="clip-path">
      <rect id="Rectangle_553" data-name="Rectangle 553" width="17.788" height="17.709" fill="#142a49" stroke="#000" stroke-width="0.2"/>
    </clipPath>
  </defs>
  <g id="Group_842" data-name="Group 842" clip-path="url(#clip-path)">
    <path id="Path_5329" data-name="Path 5329" d="M245.694,10.22c-.054-.285-.108-.575-.16-.855-.1-.542-.2-1.1-.317-1.651a7.233,7.233,0,0,0-.29-1.087,2.864,2.864,0,0,0-.962-1.223l-.452-.358.411-.4a2.671,2.671,0,0,0,.855-1.943,2.6,2.6,0,0,0-.8-1.848,2.624,2.624,0,0,0-1.821-.732h0A2.591,2.591,0,0,0,240.44.77a2.685,2.685,0,0,0-.886,1.912,2.568,2.568,0,0,0,.83,1.935l.356.348-.34.363c-.065.07-.132.138-.2.2-.137.141-.266.274-.379.413a3.34,3.34,0,0,0-.677,1.611c-.2,1.127-.416,2.267-.629,3.369q-.1.507-.2,1.014c-.094.489-.192.985-.287,1.465l-.106.534h2.407V17.82H244V13.937h2.409l-.236-1.233q-.238-1.242-.475-2.484M240.7,4.2a2.044,2.044,0,0,1-.6-1.466A2.045,2.045,0,0,1,242.169.668h.006a2.037,2.037,0,0,1,2.063,2.03,2.083,2.083,0,0,1-.6,1.495,2.049,2.049,0,0,1-1.466.6h0a2.072,2.072,0,0,1-1.472-.6m4.426,9.195h-1.658v3.879h-2.58V13.4h-2.3l.1-.6c.019-.11.038-.218.056-.323.04-.23.077-.447.118-.667l.091-.488c.156-.835.318-1.7.484-2.546l.042-.218c.094-.483.191-.983.324-1.474a2.411,2.411,0,0,1,2.334-1.738h.015a2.382,2.382,0,0,1,2.347,1.7c.147.518.248,1.047.346,1.559l.052.272c.185.951.366,1.918.542,2.854l.163.869a1.367,1.367,0,0,1,.02.186c0,.019,0,.04,0,.063l.044.549Z" transform="translate(-228.618 -0.116)" fill="#142a49" stroke="#000" stroke-width="0.2"/>
    <path id="Path_5330" data-name="Path 5330" d="M6.795,9.216q0-.6,0-1.2a3.236,3.236,0,0,0-.317-1.372A3.477,3.477,0,0,0,5.3,5.26l-.485-.34.409-.428A2.659,2.659,0,0,0,6.015,2.5,2.623,2.623,0,0,0,3.4,0h0A2.594,2.594,0,0,0,1.866.508,2.5,2.5,0,0,0,.86,2.022a2.572,2.572,0,0,0,.728,2.461l.383.4-.436.345L1.5,5.26l-.057.045A3.261,3.261,0,0,0,.024,7.9C-.01,9,0,10.135.007,11.23c0,.3,0,.615.006.924.336.174.7.358,1.146.572a.7.7,0,0,1,.418.679c0,.19,0,.378,0,.578,0,.083,0,.167,0,.25v3.477H5.237q0-.348,0-.7c0-1.174,0-2.387,0-3.58a.745.745,0,0,1,.456-.73c.207-.1.418-.2.622-.305.159-.08.322-.162.487-.241,0-.982,0-1.977,0-2.941M1.343,2.676a2.129,2.129,0,0,1,.592-1.529A2.059,2.059,0,0,1,3.406.552h.01a2.026,2.026,0,0,1,2.05,2.03A2.03,2.03,0,0,1,3.411,4.678H3.4a2.041,2.041,0,0,1-2.056-2m4.439,9.373c-.212.1-.429.208-.638.314-.15.076-.3.154-.46.229,0,.987,0,1.987,0,2.955q0,.43,0,.859v.752H2.155l-.026-.481c0-.022,0-.043,0-.063,0-.052-.008-.112-.008-.176q0-.357,0-.714c0-1.028,0-2.091,0-3.138-.189-.091-.377-.185-.559-.277s-.377-.19-.566-.28a.728.728,0,0,1-.438-.7c0-.451,0-.91,0-1.353,0-.64,0-1.3,0-1.955a2.823,2.823,0,0,1,2.67-2.785c.073-.006.147-.009.22-.009A2.834,2.834,0,0,1,6.2,7.547a3.328,3.328,0,0,1,.055.572c0,.467,0,.941,0,1.4,0,.58,0,1.179,0,1.768a.774.774,0,0,1-.474.761" transform="translate(0)" fill="#142a49" stroke="#000" stroke-width="0.2"/>
  </g>
</svg>
