<svg id="Group_859" data-name="Group 859" xmlns="http://www.w3.org/2000/svg" xmlns:xlink="http://www.w3.org/1999/xlink" width="23.303" height="19.815" viewBox="0 0 23.303 19.815">
  <defs>
    <clipPath id="clip-path">
      <rect id="Rectangle_558" data-name="Rectangle 558" width="23.303" height="19.815" fill="none"/>
    </clipPath>
  </defs>
  <g id="Group_859-2" data-name="Group 859" clip-path="url(#clip-path)">
    <path id="Path_5347" data-name="Path 5347" d="M.928,107.834a.558.558,0,0,1-.275-.545c.02-.652-.03-1.311.046-1.956a2.62,2.62,0,0,1,1.9-2.3c.712-.237,1.446-.406,2.171-.606.081-.022.161-.047.257-.075,0-.17.01-.333,0-.494a.3.3,0,0,0-.107-.184,2.738,2.738,0,0,1-1.078-2.247c0-.132-.008-.265,0-.4a.391.391,0,0,0-.213-.433A.525.525,0,0,1,3.45,98.2c-.017-.7-.014-1.4,0-2.1a.265.265,0,0,0-.209-.3c-.451-.161-.9-.341-1.381-.527,0,.415,0,.806.005,1.2,0,.057.065.119.112.166.312.313.628.623.937.928l-.565.569-.41-.473-.071.041v.554h-.8v-.6l-.52.489L0,97.572c.3-.3.621-.6.923-.923a.528.528,0,0,0,.131-.32c.014-.5.005-1.01.006-1.516,0-.326.055-.407.353-.522q2.472-.953,4.943-1.908a.662.662,0,0,1,.514-.007q2.47.959,4.945,1.906c.2.078.369.187.365.425s-.16.333-.358.407c-.6.226-1.2.468-1.8.688a.3.3,0,0,0-.227.339c.012.668,0,1.337.007,2.006a.51.51,0,0,1-.292.532c-.058.028-.1.143-.1.221-.027.371,0,.75-.067,1.114a2.641,2.641,0,0,1-.957,1.607.732.732,0,0,0-.162.689c.037.058.139.085.217.107.679.189,1.361.369,2.039.56a2.772,2.772,0,0,1,2.1,2.742c0,.536-.007,1.073,0,1.609a.493.493,0,0,1-.29.507Zm9.667-2.378v1.57h1.186c0-.454,0-.895,0-1.336a1.97,1.97,0,0,0-1.439-1.924c-.564-.168-1.136-.307-1.7-.474a.337.337,0,0,0-.355.082c-.437.373-.879.739-1.321,1.106-.275.229-.419.228-.694,0-.447-.372-.889-.751-1.344-1.114a.4.4,0,0,0-.305-.065q-.845.208-1.683.45a1.851,1.851,0,0,0-1.418,1.482,13.593,13.593,0,0,0-.1,1.793H2.652v-1.559h.8v1.557H9.807v-1.568ZM2.567,94.7l3.078,1.187a3.044,3.044,0,0,0,.977.342,3.024,3.024,0,0,0,.977-.34c1.01-.389,2.02-.781,3.052-1.18a1.465,1.465,0,0,0-.139-.074C9.255,94.147,8,93.662,6.74,93.185a.436.436,0,0,0-.283.013c-1.027.39-2.052.788-3.077,1.184l-.814.316m1.668,1.5c0,.345,0,.647,0,.95s.014.586.021.879a6.971,6.971,0,0,0,.9.358,6.672,6.672,0,0,0,1.523.273,5.035,5.035,0,0,0,1.911-.449C9,98.041,9,98.041,9,97.593c0-.388,0-.777,0-1.165,0-.066-.009-.132-.016-.223-.687.264-1.353.511-2.012.777a.849.849,0,0,1-.69,0c-.665-.272-1.339-.52-2.048-.792m.414,2.879a2.013,2.013,0,0,0,.925,2.082,1.878,1.878,0,0,0,2.148-.036A2.041,2.041,0,0,0,8.6,99.076a5.146,5.146,0,0,1-3.948,0m2.762,3.135H5.844l-.089.8.866.722.889-.745a3.762,3.762,0,0,1-.1-.411,3.009,3.009,0,0,1,0-.369" transform="translate(0 -88.019)" fill="#142a49"/>
    <path id="Path_5348" data-name="Path 5348" d="M271.678,1.3c.108-.922.38-1.278.984-1.292a.832.832,0,0,1,.792.407,4.806,4.806,0,0,1,.276.871h2.617c0-.1,0-.193,0-.29A.975.975,0,1,1,278.3.981c0,.092,0,.185,0,.316.2,0,.384,0,.567,0a1.417,1.417,0,0,1,1.494,1.495q0,3.532,0,7.065a1.427,1.427,0,0,1-1.513,1.5q-3.836,0-7.671,0a1.434,1.434,0,0,1-1.535-1.53q0-3.509,0-7.018A1.421,1.421,0,0,1,271.16,1.3h.518m8.1,3.188h-9.544c-.006.078-.016.146-.016.214q0,2.554,0,5.107a.87.87,0,0,0,.976.981q3.824,0,7.649,0a.865.865,0,0,0,.951-.96q0-2.542,0-5.084c0-.083-.009-.166-.013-.255m-8.074-2.6a6.753,6.753,0,0,0-.789.006.694.694,0,0,0-.647.586,11.77,11.77,0,0,0-.014,1.413h9.5c0-.476.03-.941-.011-1.4a.651.651,0,0,0-.527-.565,5.673,5.673,0,0,0-.826-.071,5.258,5.258,0,0,1-.282.887.76.76,0,0,1-.742.4,1.406,1.406,0,0,1-.645-.212,1.085,1.085,0,0,1-.375-1.048h-2.61a4.971,4.971,0,0,1-.272.854.764.764,0,0,1-.762.407,1.37,1.37,0,0,1-.624-.209,1.076,1.076,0,0,1-.375-1.048m1.382-.293h0c0-.2.008-.4,0-.6a.4.4,0,0,0-.414-.408.388.388,0,0,0-.381.413c-.008.387-.007.774,0,1.161a.385.385,0,0,0,.4.416.4.4,0,0,0,.4-.422c.007-.185,0-.372,0-.557m4.636.006c0-.209.008-.418,0-.627a.382.382,0,0,0-.378-.391.393.393,0,0,0-.412.385c-.012.41-.014.821,0,1.231a.381.381,0,0,0,.418.375.375.375,0,0,0,.373-.392c.008-.193,0-.387,0-.581" transform="translate(-257.058 0)" fill="#142a49"/>
    <path id="Path_5349" data-name="Path 5349" d="M438.724,153.255a.5.5,0,1,1-1.008-.018.5.5,0,0,1,1.008.018" transform="translate(-417.295 -145.624)" fill="#142a49"/>
    <path id="Path_5350" data-name="Path 5350" d="M438.22,113.675a.493.493,0,0,1,.493.507.5.5,0,1,1-1.008-.022.5.5,0,0,1,.515-.485" transform="translate(-417.284 -108.372)" fill="#142a49"/>
    <path id="Path_5351" data-name="Path 5351" d="M310.858,153.245a.506.506,0,0,1-.49.515.514.514,0,0,1-.516-.492.5.5,0,0,1,.5-.519.491.491,0,0,1,.5.5" transform="translate(-295.396 -145.623)" fill="#142a49"/>
    <path id="Path_5352" data-name="Path 5352" d="M310.355,191.83a.492.492,0,0,1,.5.5.5.5,0,1,1-1.007-.009.5.5,0,0,1,.508-.491" transform="translate(-295.391 -182.88)" fill="#142a49"/>
    <path id="Path_5353" data-name="Path 5353" d="M353.049,152.753a.494.494,0,0,1,.5.5.5.5,0,1,1-1.005,0,.484.484,0,0,1,.5-.493" transform="translate(-336.098 -145.626)" fill="#142a49"/>
    <path id="Path_5354" data-name="Path 5354" d="M353.07,113.672a.5.5,0,0,1,.494.506.511.511,0,0,1-.526.5.5.5,0,0,1-.478-.522.484.484,0,0,1,.509-.487" transform="translate(-336.112 -108.369)" fill="#142a49"/>
    <path id="Path_5355" data-name="Path 5355" d="M352.534,192.329a.488.488,0,0,1,.5-.5.5.5,0,0,1,.508.517.505.505,0,0,1-.514.491.5.5,0,0,1-.492-.509" transform="translate(-336.087 -182.881)" fill="#142a49"/>
    <path id="Path_5356" data-name="Path 5356" d="M396.152,192.339a.5.5,0,1,1-1-.016.5.5,0,1,1,1,.016" transform="translate(-376.715 -182.879)" fill="#142a49"/>
    <path id="Path_5357" data-name="Path 5357" d="M396.135,114.177a.5.5,0,0,1-.5.5.5.5,0,0,1-.5-.507.49.49,0,0,1,.517-.5.482.482,0,0,1,.484.511" transform="translate(-376.699 -108.363)" fill="#142a49"/>
    <path id="Path_5358" data-name="Path 5358" d="M396.143,153.252a.5.5,0,1,1-1,.021.492.492,0,0,1,.5-.518.486.486,0,0,1,.5.5" transform="translate(-376.705 -145.628)" fill="#142a49"/>
  </g>
</svg>
