<svg id="Group_850" data-name="Group 850" xmlns="http://www.w3.org/2000/svg" xmlns:xlink="http://www.w3.org/1999/xlink" width="11.216" height="16.438" viewBox="0 0 11.216 16.438">
  <defs>
    <clipPath id="clip-path">
      <rect id="Rectangle_555" data-name="Rectangle 555" width="11.216" height="16.438" fill="none"/>
    </clipPath>
  </defs>
  <g id="Group_850-2" data-name="Group 850" clip-path="url(#clip-path)">
    <path id="Path_5334" data-name="Path 5334" d="M5.6,14.6c-.279-.311-.555-.6-.811-.905-.61-.73-1.221-1.46-1.812-2.2A18.741,18.741,0,0,1,1.367,9.169C1.04,8.6.722,8.022.444,7.428a4.452,4.452,0,0,1-.41-2.482,8.38,8.38,0,0,1,.211-.963A4.745,4.745,0,0,1,.8,2.716,5.684,5.684,0,0,1,2.234,1.122,5.221,5.221,0,0,1,3.458.416,5.83,5.83,0,0,1,4.741.063a6.035,6.035,0,0,1,1.2-.057A5.312,5.312,0,0,1,7.169.215a5.567,5.567,0,0,1,3.1,2.26,5.763,5.763,0,0,1,.706,1.5,5.291,5.291,0,0,1,.214,2.051,3.488,3.488,0,0,1-.172.744,7.823,7.823,0,0,1-.674,1.536c-.3.52-.6,1.041-.932,1.545a33.858,33.858,0,0,1-2.884,3.729c-.262.3-.534.594-.8.89-.034.037-.073.069-.13.123m.012-1.273c.268-.3.515-.574.753-.853a30.644,30.644,0,0,0,2.395-3.16,11.435,11.435,0,0,0,1.429-2.752,3.257,3.257,0,0,0,.183-.951,5.007,5.007,0,0,0-.15-1.171,4.5,4.5,0,0,0-.773-1.621A4.841,4.841,0,0,0,7.228,1.132a4.262,4.262,0,0,0-1.3-.27A4.924,4.924,0,0,0,3.977,1.1a4.416,4.416,0,0,0-1.491.872A4.828,4.828,0,0,0,.881,5.058a3.52,3.52,0,0,0,.2,1.668,9.532,9.532,0,0,0,.9,1.825c.331.525.656,1.057,1.028,1.553.635.846,1.3,1.668,1.963,2.494.193.242.408.467.634.723" transform="translate(0.001 0.001)"/>
    <path id="Path_5335" data-name="Path 5335" d="M6.106,462.353c-.6-.039-1.209-.055-1.809-.126-.515-.061-1.022-.186-1.532-.283a5.049,5.049,0,0,1-1.392-.5,1.638,1.638,0,0,1-.794-.711A.748.748,0,0,1,.66,460a2.256,2.256,0,0,1,.994-.689,9.5,9.5,0,0,1,1.119-.371c.372-.094.757-.137,1.137-.2.078-.014.115.023.116.1,0,.2.007.41,0,.614a.164.164,0,0,1-.1.115c-.245.053-.5.08-.738.141-.363.09-.725.187-1.079.306a3.289,3.289,0,0,0-.585.284c-.167.1-.167.171,0,.265a4.232,4.232,0,0,0,.65.312,9.137,9.137,0,0,0,1.079.316c.4.087.814.138,1.224.191a15.314,15.314,0,0,0,2.956.044,11.018,11.018,0,0,0,1.6-.235,5.2,5.2,0,0,0,1.648-.6.689.689,0,0,0,.059-.037c.141-.107.149-.159-.007-.237a6.949,6.949,0,0,0-.834-.368c-.332-.115-.676-.193-1.017-.284-.13-.035-.262-.061-.394-.088a.118.118,0,0,1-.108-.136c0-.2,0-.391,0-.587,0-.1.038-.13.137-.118a7.812,7.812,0,0,1,1.689.394,3.333,3.333,0,0,1,1.185.651.905.905,0,0,1,.326.534.893.893,0,0,1-.44.871,3.717,3.717,0,0,1-1.2.587c-.351.1-.7.211-1.059.288a9.1,9.1,0,0,1-1.087.172c-.6.055-1.206.082-1.813.121" transform="translate(-0.503 -445.915)"/>
    <path id="Path_5336" data-name="Path 5336" d="M102.216,104.8a2.71,2.71,0,0,1,2.751-2.749,2.761,2.761,0,1,1-.076,5.521,2.71,2.71,0,0,1-2.675-2.772m2.754-1.879a1.9,1.9,0,1,0,1.91,1.9,1.9,1.9,0,0,0-1.91-1.9" transform="translate(-99.36 -99.197)"/>
  </g>
</svg>
