<svg xmlns="http://www.w3.org/2000/svg" xmlns:xlink="http://www.w3.org/1999/xlink" width="13.932" height="18.647" viewBox="0 0 13.932 18.647">
  <defs>
    <clipPath id="clip-path">
      <rect id="Rectangle_554" data-name="Rectangle 554" width="13.931" height="18.648" fill="none"/>
    </clipPath>
  </defs>
  <g id="Group_846" data-name="Group 846" clip-path="url(#clip-path)">
    <path id="Path_5331" data-name="Path 5331" d="M13.93,9.316q0,3.489,0,6.978c0,1.633-.885,2.351-2.9,2.352q-4.1,0-8.2,0C.934,18.643,0,17.9,0,16.384q0-7.052,0-14.1C0,.751.924.005,2.811,0Q6.973,0,11.135,0c1.861,0,2.789.745,2.793,2.236.006,2.359,0,4.718,0,7.077M3.335.758C1.576.552.875,1.021.875,2.355q0,7.024,0,14.047c0,1.1.547,1.539,1.921,1.541q4.16,0,8.319,0c1.414,0,1.938-.426,1.938-1.573q0-7.049,0-14.1c0-1.251-.847-1.773-2.453-1.5-.015.121-.032.25-.046.38-.072.645-.509,1.019-1.309,1.029q-2.265.03-4.532,0c-.813-.01-1.255-.371-1.335-1.012-.016-.13-.027-.261-.043-.415M9.6.736H4.331c-.145.647-.051.751.687.754q1.951.007,3.9,0c.735,0,.828-.107.684-.754" transform="translate(0 0)"/>
    <path id="Path_5332" data-name="Path 5332" d="M34.436,163.455c.828,0,1.655,0,2.482,0,.321,0,.645.053.575.357-.032.137-.358.325-.554.328q-2.513.039-5.026,0c-.194,0-.518-.2-.545-.334-.059-.3.264-.354.586-.351.827.005,1.655,0,2.482,0" transform="translate(-27.466 -147.164)"/>
  </g>
</svg>
