<svg id="Group_855" data-name="Group 855" xmlns="http://www.w3.org/2000/svg" xmlns:xlink="http://www.w3.org/1999/xlink" width="20.613" height="20.607" viewBox="0 0 20.613 20.607">
  <defs>
    <clipPath id="clip-path">
      <rect id="Rectangle_546" data-name="Rectangle 546" width="20.613" height="20.607" fill="none"/>
    </clipPath>
  </defs>
  <g id="Group_831" data-name="Group 831" clip-path="url(#clip-path)">
    <path id="Path_5315" data-name="Path 5315" d="M15.109,10a.858.858,0,0,0,.173-.09c.366-.387.69-.3,1.065.024A5.4,5.4,0,0,0,19.3,11.294c.284.031.571.036.856.039a.39.39,0,0,1,.445.446c0,1.616.037,3.234-.02,4.849a2.833,2.833,0,0,1-1.629,2.5c-.951.492-1.921.951-2.907,1.368a1.261,1.261,0,0,1-.785-.122.549.549,0,0,0-.618.03,1.207,1.207,0,0,1-.681.191q-6.416.016-12.831.006A1.031,1.031,0,0,1,0,19.489Q0,11.336,0,3.182A1.033,1.033,0,0,1,1.131,2.067c.787-.006,1.574.012,2.36-.013a.714.714,0,0,0,.469-.24,1.223,1.223,0,0,1,1.15-.433A.634.634,0,0,0,5.81,1a2.029,2.029,0,0,1,3.53.061.508.508,0,0,0,.56.322,1.242,1.242,0,0,1,1.333.569c.044.076.215.108.328.109.8.009,1.6,0,2.4.006a1.041,1.041,0,0,1,1.142,1.147q.006,3.133,0,6.265V10m-2.093,1.189V4.127c-.5,0-.972,0-1.443,0a.787.787,0,0,0-.255.094,1.815,1.815,0,0,1-.585.234q-3.025.026-6.05.005c-.332,0-.739.154-.937-.305-.012-.028-.1-.03-.16-.031-.5,0-.992,0-1.5,0v14.4h9.695a3.745,3.745,0,0,1-.422-.669c-.112-.306-.307-.345-.588-.343-1.716.01-3.432,0-5.149,0H5.169v-.688h5.793V15.44H5.172v-.678h5.782V13.383H5.177v-.692h5.809c0-.275,0-.5,0-.731,0-.567.053-.6.605-.63.478-.024.955-.091,1.423-.138m1.035,8.727a3.509,3.509,0,0,0-1.97-.7c-3.374.04-6.749.018-10.124.017-.509,0-.583-.07-.583-.561q0-7.336,0-14.671c0-.492.073-.56.582-.562.6,0,1.193,0,1.791,0V2.754c-.843,0-1.657,0-2.47,0-.525,0-.588.064-.588.6q0,7.979,0,15.958c0,.553.056.607.623.607H14.051m-2.366-7.892c0,1.575-.043,3.1.016,4.629a2.175,2.175,0,0,0,1.336,1.909c.822.4,1.644.8,2.479,1.17a.814.814,0,0,0,.589-.013c.8-.351,1.581-.733,2.365-1.111a2.375,2.375,0,0,0,1.442-2.289c0-1.144,0-2.288,0-3.432v-.861A6.27,6.27,0,0,1,15.8,10.38a6.3,6.3,0,0,1-4.114,1.647M4.466,3.751h6.178c0-.229,0-.427,0-.626.007-1.141.073-1.077-1.071-1.051-.394.009-.624-.078-.753-.5A1.232,1.232,0,0,0,7.66.7a1.144,1.144,0,0,0-1.268.687c-.221.665-.631.751-1.2.681a2.568,2.568,0,0,0-.3,0,.371.371,0,0,0-.426.417c0,.413,0,.825,0,1.267m6.883-.313h1.632c.742,0,.754.012.754.733q0,3.107,0,6.214v.484c.472-.137.707-.317.7-.837-.034-2.242-.015-4.485-.013-6.728,0-.256-.008-.533-.337-.54-.909-.02-1.818-.007-2.735-.007Z" transform="translate(0 0)" fill="#142a49"/>
    <path id="Path_5316" data-name="Path 5316" d="M61.351,63.467c-.335,0-.618-.006-.9,0-.319.008-.479-.131-.474-.458.006-.371.009-.742,0-1.113-.01-.341.135-.5.483-.493.282.009.564,0,.892,0,0-.317.008-.6,0-.879-.012-.339.13-.505.48-.5.371.01.742.008,1.113,0,.32-.006.478.134.472.461-.006.284,0,.568,0,.914.3,0,.579.01.857,0,.359-.016.532.131.519.5s-.011.714,0,1.07c.01.34-.135.505-.483.494-.282-.009-.564,0-.892,0,0,.317-.008.6,0,.879.012.339-.131.505-.48.5-.371-.009-.742-.008-1.113,0-.321.006-.478-.135-.471-.461.006-.284,0-.568,0-.914m-.664-1.373v.685c.316,0,.612,0,.909,0a.385.385,0,0,1,.444.443c0,.3,0,.593,0,.905h.685c0-.164,0-.3,0-.445,0-.9,0-.9.882-.9h.463v-.685c-.312,0-.6-.005-.879,0-.323.007-.474-.142-.466-.465.007-.295,0-.59,0-.876h-.685c0,.174,0,.316,0,.458,0,.882,0,.882-.861.883h-.492" transform="translate(-54.827 -54.877)" fill="#142a49"/>
    <rect id="Rectangle_541" data-name="Rectangle 541" width="5.114" height="0.637" transform="translate(5.169 10.671)" fill="#142a49"/>
    <rect id="Rectangle_542" data-name="Rectangle 542" width="1.338" height="0.633" transform="translate(3.111 10.679)" fill="#142a49"/>
    <rect id="Rectangle_543" data-name="Rectangle 543" width="1.327" height="0.648" transform="translate(3.118 12.732)" fill="#142a49"/>
    <rect id="Rectangle_544" data-name="Rectangle 544" width="1.338" height="0.631" transform="translate(3.098 14.8)" fill="#142a49"/>
    <rect id="Rectangle_545" data-name="Rectangle 545" width="1.337" height="0.622" transform="translate(3.098 16.862)" fill="#142a49"/>
    <path id="Path_5317" data-name="Path 5317" d="M143.962,135.76c0-.543.01-1.087,0-1.63-.009-.334.126-.483.459-.541a6.212,6.212,0,0,0,2.625-1.1.509.509,0,0,1,.692-.014,6.242,6.242,0,0,0,2.664,1.117.45.45,0,0,1,.437.517c-.009,1.1.008,2.2-.008,3.3a1.625,1.625,0,0,1-.951,1.515c-.728.363-1.463.714-2.209,1.04a.776.776,0,0,1-.559-.01c-.732-.321-1.452-.67-2.17-1.022a1.649,1.649,0,0,1-.972-1.545c-.012-.543,0-1.087,0-1.63m.7-1.363c0,.954-.016,2.037.009,3.119a.934.934,0,0,0,.6.821c.632.3,1.259.607,1.9.891a.6.6,0,0,0,.433.014,20.792,20.792,0,0,0,1.964-.948,1.1,1.1,0,0,0,.535-.711c.058-1.107.025-2.219.025-3.194-.9-.419-1.722-.8-2.549-1.177a.461.461,0,0,0-.337-.012c-.838.378-1.67.771-2.581,1.2" transform="translate(-131.601 -120.987)" fill="#142a49"/>
    <path id="Path_5318" data-name="Path 5318" d="M76.027,13.042a1.029,1.029,0,1,1,.978,1.088,1.041,1.041,0,0,1-.978-1.088m1.028-.415c-.157.21-.335.347-.316.449.025.136.2.243.314.363.113-.119.291-.226.317-.361.019-.1-.159-.24-.314-.451" transform="translate(-69.5 -11.036)" fill="#142a49"/>
    <path id="Path_5319" data-name="Path 5319" d="M164.822,160.921l.5.553c-.338.321-.682.638-1.015.966-.549.541-1.1,1.085-1.635,1.637-.237.243-.445.265-.689.011-.3-.307-.608-.6-.947-.928l.562-.414.725.693,2.5-2.518" transform="translate(-147.214 -147.109)" fill="#142a49"/>
  </g>
</svg>
