<svg xmlns="http://www.w3.org/2000/svg" xmlns:xlink="http://www.w3.org/1999/xlink" width="17.911" height="18.369" viewBox="0 0 17.911 18.369">
  <defs>
    <clipPath id="clip-path">
      <rect id="Rectangle_539" data-name="Rectangle 539" width="17.911" height="18.369" fill="none"/>
    </clipPath>
  </defs>
  <g id="Group_829" data-name="Group 829" clip-path="url(#clip-path)">
    <path id="Path_5308" data-name="Path 5308" d="M116.393,90.058c-.058-.133-.168-.267-.165-.4.035-1.241.067-2.483.146-3.722a2.623,2.623,0,0,1,1.456-2.185,13.5,13.5,0,0,0,3.27-2.667,1.109,1.109,0,0,1,1.485-.313c.232-.6.46-1.179.687-1.764a1.01,1.01,0,0,1,.878-.716c.45-.041.63.14.893.851v.672c-.258.975-.532,1.946-.768,2.927a4.644,4.644,0,0,1-.984,2.059c-.762.858-1.541,1.7-2.305,2.553a.647.647,0,0,0-.183.365c-.009.613.028,1.227.011,1.84a1.508,1.508,0,0,1-.213.5Zm.439-2.558c1.024,0,2.046,0,3.069-.007a.45.45,0,0,0,.258-.163c.762-.8,1.528-1.6,2.274-2.415a5.023,5.023,0,0,0,1.316-2.471c.126-.653.339-1.287.5-1.933a4.773,4.773,0,0,0,.188-.979,1.893,1.893,0,0,0-.205-.619c-.151.148-.362.266-.442.449-.306.707-.561,1.44-.855,2.154a3.792,3.792,0,0,1-.473.9c-.63.8-1.294,1.568-1.943,2.349-.145.175-.3.358-.519.141s-.052-.4.092-.572q.963-1.155,1.921-2.314a1.073,1.073,0,0,0,.217-.385.414.414,0,0,0-.06-.339.325.325,0,0,0-.32-.009,3.107,3.107,0,0,0-.484.412,13.331,13.331,0,0,1-2.792,2.321c-1.644.886-1.68,1.581-1.743,3.475m3.377.664h-3.391v1.21h3.391Z" transform="translate(-107.132 -71.689)"/>
    <path id="Path_5309" data-name="Path 5309" d="M4.429,90.056a1.507,1.507,0,0,1-.213-.5c-.017-.613.02-1.228.011-1.841a.65.65,0,0,0-.184-.366C3.279,86.5,2.5,85.656,1.738,84.8a4.212,4.212,0,0,1-.929-1.86c-.248-1.053-.529-2.1-.777-3.15a1.8,1.8,0,0,1,0-.663c.079-.516.324-.793.692-.833a.982.982,0,0,1,1,.639c.245.6.475,1.2.723,1.832.664-.371,1.146-.039,1.6.434A11.783,11.783,0,0,0,7,83.618a3.066,3.066,0,0,1,1.725,2.815c.026,1.047.066,2.094.079,3.141a1.532,1.532,0,0,1-.167.482ZM8.249,87.5c-.052-.481-.114-.881-.134-1.283A2.192,2.192,0,0,0,6.91,84.293a13.8,13.8,0,0,1-3.4-2.762c-.182-.188-.434-.46-.661-.209-.213.236.008.508.189.724.643.769,1.281,1.543,1.922,2.313.139.167.267.345.077.543-.212.22-.372.05-.518-.129-.276-.335-.536-.688-.835-1A8.42,8.42,0,0,1,1.6,80.249a5.145,5.145,0,0,0-.382-.959c-.085-.16-.272-.257-.413-.382a1.774,1.774,0,0,0-.223.529,2.266,2.266,0,0,0,.1.7c.217.861.458,1.716.666,2.58A3.792,3.792,0,0,0,2.183,84.4c.893,1,1.8,1.974,2.708,2.955a.425.425,0,0,0,.267.143c1.01.01,2.021.006,3.09.006M4.823,89.371H8.212V88.162H4.823Z" transform="translate(0 -71.686)"/>
    <path id="Path_5310" data-name="Path 5310" d="M46.06,5.973c-.812.1-1,.749-.988,1.555H40.789A1.474,1.474,0,0,1,41.9,5.772a6.9,6.9,0,0,0,.82-.251A.84.84,0,0,0,43.159,4.3c-.119-.278-.238-.557-.361-.834a1.408,1.408,0,0,1-.053-1.128,2.18,2.18,0,0,0,.077-.739A1.476,1.476,0,0,1,44.133,0a1.654,1.654,0,0,1,1.789,1.608,6.8,6.8,0,0,0,.134.892c.043.279.075.538-.187.748S45.39,3.7,45.6,4.1a.147.147,0,0,1-.009.119.756.756,0,0,0,.135,1,3.149,3.149,0,0,1,.339.752" transform="translate(-37.588 0)"/>
    <path id="Path_5311" data-name="Path 5311" d="M137.588,18.081h-2.85c0-.685-.123-1.281-.8-1.434a5.612,5.612,0,0,0,.306-.745c.027-.1-.092-.243-.131-.371a1.337,1.337,0,0,1-.12-.5,1.317,1.317,0,0,0-.668-1.475,2.61,2.61,0,0,1,.755-1.605,1.164,1.164,0,0,1,1.7.052,2.942,2.942,0,0,1,.718,1.456c.164.626.365,1.241.548,1.861a1.812,1.812,0,0,1,.028.224h-1.457c-.112.644-.013.869.469,1.078.3.13.615.219.916.346.572.241.657.406.594,1.118" transform="translate(-122.887 -10.626)"/>
    <path id="Path_5312" data-name="Path 5312" d="M103.376,39.071c.654.173,1.46.14,1.263,1.268h-3.48c-.023-.366-.093-.768.265-.967a5.814,5.814,0,0,1,1.065-.342,6.962,6.962,0,0,1-.5-.689,1.63,1.63,0,0,1-.185-.587c-.047-.389-.056-.783-.081-1.174l-.127-.019a5.922,5.922,0,0,1,.5-.451.908.908,0,0,1,1.085-.139c.477.281.912.557.714,1.266a.069.069,0,0,0,0,.041c.306.664-.044,1.106-.44,1.537-.039.042-.038.127-.074.258" transform="translate(-93.223 -32.822)"/>
  </g>
</svg>
