<svg id="Group_861" data-name="Group 861" xmlns="http://www.w3.org/2000/svg" xmlns:xlink="http://www.w3.org/1999/xlink" width="18.067" height="21.352" viewBox="0 0 18.067 21.352">
  <defs>
    <clipPath id="clip-path">
      <rect id="Rectangle_559" data-name="Rectangle 559" width="18.067" height="21.352" fill="none"/>
    </clipPath>
  </defs>
  <g id="Group_860" data-name="Group 860" clip-path="url(#clip-path)">
    <path id="Path_5359" data-name="Path 5359" d="M0,89.347a7.541,7.541,0,0,1,4.191-6.759,1.277,1.277,0,0,1,1.906.881,1.3,1.3,0,0,1-.775,1.424,4.982,4.982,0,1,0,6.05,7.671c.081-.1.156-.2.237-.291a1.285,1.285,0,1,1,2.012,1.6A7.285,7.285,0,0,1,9.237,96.7a7.431,7.431,0,0,1-6.952-1.982,1.308,1.308,0,0,1-.323-.375.391.391,0,0,1,.056-.36.415.415,0,0,1,.365-.029c.119.049.2.181.3.279A6.929,6.929,0,0,0,13,93.642a2.279,2.279,0,0,0,.2-.269.645.645,0,0,0-.158-.859.66.66,0,0,0-.873.068,3.063,3.063,0,0,0-.21.259,5.609,5.609,0,0,1-9.983-3.747A5.48,5.48,0,0,1,4.8,84.462c.083-.05.171-.093.255-.141a.662.662,0,1,0-.626-1.153A6.792,6.792,0,0,0,.8,87.942a6.734,6.734,0,0,0,.808,4.9c.021.036.062.073.06.107-.011.171-.033.341-.051.512-.161-.062-.4-.077-.472-.195A6.822,6.822,0,0,1,.131,90.6c-.066-.41-.088-.827-.131-1.253" transform="translate(0 -75.542)" fill="#142a49"/>
    <path id="Path_5360" data-name="Path 5360" d="M87.948,61.813v2.338h1.007c.9,0,1.806-.005,2.709,0a1.83,1.83,0,0,1,1.785,1.2,15.675,15.675,0,0,1,.591,1.6.57.57,0,0,1-.133.514c-.231.135-.362-.074-.441-.29q-.271-.743-.556-1.48a1.294,1.294,0,0,0-1.334-.926c-1.237-.007-2.473,0-3.71,0-.515,0-.555-.04-.556-.539,0-.848.011-1.7-.006-2.543-.008-.381.143-.519.517-.515,1.139.013,2.279.006,3.418,0,.534,0,.834-.241.834-.656s-.309-.662-.836-.664c-1.139,0-2.279-.011-3.418,0-.374,0-.547-.127-.511-.511a3.013,3.013,0,0,0,0-.458,1.274,1.274,0,0,0-1.291-1.256,1.258,1.258,0,0,0-1.267,1.276c-.017,1.014,0,2.029-.005,3.043,0,.111.036.245-.013.328a.614.614,0,0,1-.319.289c-.067.016-.189-.175-.277-.28-.021-.026-.009-.081-.009-.122,0-1.125-.018-2.251.013-3.376A1.87,1.87,0,0,1,85.855,57a1.9,1.9,0,0,1,2.006,1.411,6.534,6.534,0,0,1,.1.822h1.914c.528,0,1.056-.01,1.584.006a1.277,1.277,0,0,1,.2,2.531,4.807,4.807,0,0,1-.829.041c-.944,0-1.887,0-2.881,0" transform="translate(-77.105 -52.239)" fill="#142a49"/>
    <path id="Path_5361" data-name="Path 5361" d="M88.1,135.4c-.667,0-1.333.006-2,0a1.909,1.909,0,0,1-2.028-2.04,8.506,8.506,0,0,1,.015-1.081c.015-.131.191-.244.294-.365.1.122.279.236.293.367.041.37.01.748.016,1.123a1.276,1.276,0,0,0,1.358,1.356c1.347.006,2.694,0,4.041,0a1.937,1.937,0,0,1,2.024,1.407c.354.933.7,1.868,1.059,2.8.187.489.532.677.926.517.362-.147.477-.514.3-.989-.152-.417-.334-.825-.45-1.251-.038-.139.086-.322.136-.485.146.09.365.148.425.278a14.347,14.347,0,0,1,.53,1.4,1.284,1.284,0,1,1-2.408.893c-.366-.928-.7-1.868-1.053-2.8-.344-.919-.649-1.127-1.649-1.128H88.1" transform="translate(-77.05 -120.906)" fill="#142a49"/>
    <path id="Path_5362" data-name="Path 5362" d="M84.968,0a2,2,0,1,1-2,1.98,1.993,1.993,0,0,1,2-1.98m.017.635a1.367,1.367,0,1,0,1.357,1.395A1.366,1.366,0,0,0,84.984.636" transform="translate(-76.046 -0.001)" fill="#142a49"/>
  </g>
</svg>
