<svg id="Group_847" data-name="Group 847" xmlns="http://www.w3.org/2000/svg" xmlns:xlink="http://www.w3.org/1999/xlink" width="14.884" height="14.941" viewBox="0 0 14.884 14.941">
  <defs>
    <clipPath id="clip-path">
      <rect id="Rectangle_551" data-name="Rectangle 551" width="14.884" height="14.941" fill="#142a49"/>
    </clipPath>
  </defs>
  <g id="Group_838" data-name="Group 838" clip-path="url(#clip-path)">
    <path id="Path_5326" data-name="Path 5326" d="M0,3.475A2.439,2.439,0,0,1,.778,1.583c.342-.332.672-.675,1.012-1.009a1.513,1.513,0,0,1,2.375,0q.863.848,1.71,1.712a1.476,1.476,0,0,1,.005,2.342c-.291.3-.585.6-.892.88a.262.262,0,0,0-.063.372,9.275,9.275,0,0,0,2.25,2.763c.57.491,1.223.885,1.838,1.324.144.1.249.077.374-.053.343-.357.69-.713,1.059-1.043a1.379,1.379,0,0,1,1.992.026q1.01.968,1.979,1.979a1.431,1.431,0,0,1,.048,2.071,18.637,18.637,0,0,1-1.343,1.376,2.746,2.746,0,0,1-2.523.527,10.67,10.67,0,0,1-3.732-1.579A15.926,15.926,0,0,1,.713,6.3,6.858,6.858,0,0,1,0,3.475M.757,3.5A6.339,6.339,0,0,0,1.4,5.976,15.234,15.234,0,0,0,7.97,13.048a8.678,8.678,0,0,0,3.016,1.109,1.961,1.961,0,0,0,1.932-.68c.254-.305.556-.57.835-.855.481-.489.484-.841,0-1.323q-.863-.868-1.733-1.73a.724.724,0,0,0-1.2-.012c-.369.359-.727.73-1.1,1.09a.62.62,0,0,1-.844.121,12.773,12.773,0,0,1-1.407-.874A10.782,10.782,0,0,1,4.149,6.017.656.656,0,0,1,4.318,5.1c.355-.346.715-.687,1.059-1.043a.721.721,0,0,0,0-1.186q-.889-.9-1.793-1.794a.743.743,0,0,0-1.212-.007c-.341.332-.667.68-1.013,1.007A1.772,1.772,0,0,0,.757,3.5" transform="translate(0 0)" fill="#142a49"/>
  </g>
</svg>
